# xmcd
#
# Track frame offsets:
#	150
#	11667
#	26096
#	38308
#	51786
#	66420
#	78086
#	91756
#	105487
#	120073
#	131970
#	148200
#
# Disc length: 2158 seconds
# Revision: 0
# Processed by: cddbd v1.5.2PL0 Copyright (c) Steve Scherf et al.
# Submitted via: dBpowerAMP V12.0
#
DISCID=92086c0c
DTITLE=Russ Carson - Avenue of the Giants
DYEAR=2014
DGENRE=Country\\Bluegrass
TTITLE0=New York Chimes
TTITLE1=Things in Life  
TTITLE2=Let Me Rest
TTITLE3=Charlie's Neat
TTITLE4=Heartbreak Hall of Fame
TTITLE5=Pat Made Me Do It
TTITLE6=Stone Cold
TTITLE7=Daddy's Dream
TTITLE8=Letters Have No Arms
TTITLE9=Montana Cowboy
TTITLE10=New River Train
TTITLE11=Avenue of the Giants
EXTD=
EXTT0=
EXTT1=
EXTT2=
EXTT3=
EXTT4=
EXTT5=
EXTT6=
EXTT7=
EXTT8=
EXTT9=
EXTT10=
EXTT11=
PLAYORDER=
